<?xml version="1.0" encoding="UTF-8"?>
<svg id="Layer_1" xmlns="http://www.w3.org/2000/svg" viewBox="0 0 1119.89 564.13">
  <defs>
    <style>
      .cls-1 {
        fill: #ccc;
      }
    </style>
  </defs>
  <path class="cls-1" d="M28.35,259.28V0h100.16c26.71,0,49.51,4.6,68.41,13.79,18.9,9.2,33.45,23.31,43.65,42.33,10.2,19.03,15.31,43.53,15.31,73.52s-5.11,54.18-15.31,73.32c-10.2,19.15-24.76,33.33-43.65,42.52-18.9,9.2-41.71,13.79-68.41,13.79H28.35ZM70.68,222.99h57.45c13.35,0,25.26-1.76,35.72-5.29,10.45-3.52,19.27-8.94,26.45-16.25,7.19-7.31,12.6-16.57,16.26-27.78,3.65-11.21,5.48-24.51,5.48-39.88v-7.94c0-15.62-1.83-29.03-5.48-40.25-3.65-11.21-9.07-20.47-16.26-27.78-7.18-7.31-16-12.72-26.45-16.26-10.46-3.53-22.36-5.29-35.72-5.29h-57.45v186.72Z"/>
  <path class="cls-1" d="M299.35,259.28V60.47h32.5l3.41,32.12h2.26c2.27-6.29,5.23-12.22,8.88-17.76,3.65-5.54,8.44-10.08,14.36-13.61,5.92-3.53,13.16-5.29,21.73-5.29,4.03,0,7.62.38,10.77,1.14,3.15.76,5.61,1.39,7.37,1.89v37.04h-13.23c-8.07,0-15.18,1.26-21.36,3.78-6.18,2.52-11.34,6.23-15.5,11.15-4.16,4.91-7.18,10.9-9.08,17.95-1.89,7.06-2.83,15-2.83,23.81v106.59h-39.31Z"/>
  <path class="cls-1" d="M1119.89,259.28V121.7c0-16.12-2.64-29.03-7.94-38.74-5.29-9.7-12.47-16.63-21.54-20.79-9.07-4.16-19.53-6.24-31.37-6.24-8.82,0-17.07,1.27-24.76,3.78-7.69,2.52-14.55,6.24-20.6,11.15-6.04,4.92-11.34,10.91-15.87,17.96h-2.65c-4.79-11.84-11.78-20.28-20.98-25.32-9.19-5.04-19.97-7.57-32.31-7.57-8.57,0-16.57,1.27-24,3.78-7.44,2.52-14.12,6.18-20.03,10.97-5.93,4.79-11.15,10.83-15.69,18.14h-2.64l-3.41-28.35h-32.5v1.26l-.52-1.14-56.46,32.85c-1.25-3.24-2.79-6.29-4.62-9.15-5.8-9.08-14.43-16.07-25.89-20.99-11.47-4.91-25.77-7.37-42.9-7.37-15.88,0-29.86,2.15-41.96,6.43-12.09,4.29-21.48,10.52-28.15,18.71-6.69,8.19-10.02,18.21-10.02,30.05v4.53c0,1.27.13,2.52.37,3.79h37.8v-5.67c0-4.54,1.19-8.76,3.59-12.67,2.39-3.9,6.55-7.18,12.48-9.83,5.91-2.64,14.17-3.96,24.75-3.96s18.71,1.38,24.38,4.16c5.67,2.77,9.57,6.67,11.72,11.71,1.41,3.34,2.36,6.99,2.84,10.98l-49.65,28.88h-.01c-.52.07-1.04.13-1.56.2-15.75,2.02-29.29,5.55-40.63,10.59-11.34,5.04-20.16,11.97-26.46,20.79-2.56,3.58-4.6,7.56-6.11,11.93l-32.92,19.16c.82-4.79,1.24-9.86,1.24-15.22h-38.55c0,6.56-1.13,12.42-3.4,17.57-2.27,5.17-5.42,9.58-9.45,13.23-4.03,3.66-8.95,6.43-14.74,8.32-5.8,1.89-12.35,2.83-19.66,2.83-11.84,0-21.61-2.2-29.29-6.61-7.69-4.4-13.41-11.34-17.19-20.79-3.79-9.45-5.93-21.22-6.43-35.34h139.46v-15.11c0-22.18-3.27-40.57-9.82-55.19-6.55-14.61-16.19-25.51-28.92-32.69-12.72-7.19-28.53-10.78-47.43-10.78-20.66,0-37.92,3.73-51.78,11.16-13.86,7.43-24.32,18.77-31.37,34.01-7.06,15.25-10.59,34.84-10.59,58.77s3.53,43.22,10.59,58.59c7.05,15.38,17.45,26.78,31.18,34.21,10.5,5.68,22.94,9.19,37.35,10.52l-54.55,31.74v-8.6h-39.3v31.46l-70.68,41.13v-53.69h-31.38l-6.19,47.89-127.47-28.46-9.58-24.34h-54.05L0,559.6h43.47l12.46-32.49,47.42-27.61h86.01l23.06,60.1h45.35l-48.04-122.05,76-44.25h5.3v125.1c0,7.82,1.32,15.19,3.97,22.11,2.64,6.94,7.18,12.6,13.61,17.01,6.42,4.41,15.3,6.61,26.64,6.61,3.27,0,6.8-.32,10.58-.94,3.78-.63,7.5-1.39,11.15-2.27,3.66-.88,6.74-1.82,9.26-2.83v-26.46h-19.65c-5.8,0-9.96-1.51-12.48-4.53-2.52-3.03-3.77-7.43-3.77-13.24v-120.56h35.9v-16.33l34.78,7.76v174.87h39.3v-166.09l48.43,10.81c-.29,2.29-.43,4.67-.43,7.12v4.53c0,1.27.13,2.52.37,3.79h37.8v-5.67c0-.45.01-.9.04-1.34l80.09,17.88v9.91c-18.65,0-35.85,1.01-51.59,3.02-15.75,2.02-29.29,5.55-40.63,10.59-11.34,5.04-20.16,11.97-26.46,20.79-6.3,8.82-9.45,20.03-9.45,33.64,0,11.59,2.02,20.97,6.05,28.15,4.03,7.18,9.26,12.79,15.68,16.82,6.43,4.03,13.29,6.81,20.6,8.32,7.31,1.51,14.11,2.26,20.42,2.26,10.33,0,19.65-1.2,27.97-3.59,8.31-2.39,15.68-5.79,22.1-10.2,6.43-4.41,11.91-9.51,16.44-15.3h2.28c1,5.54,2.95,10.52,5.85,14.92,2.89,4.41,6.68,7.82,11.34,10.21,4.66,2.39,10.39,3.59,17.2,3.59,6.04,0,11.34-.63,15.87-1.89,4.54-1.27,8.31-2.52,11.34-3.78v-26.46h-13.6c-3.28,0-6.12-1-8.51-3.02-2.4-2.02-3.59-5.42-3.59-10.21v-78.99l69.4,15.5h.01c6.39,4.13,13.56,7.44,21.49,10.01,8.19,2.65,16.44,5.1,24.76,7.37,9.32,2.77,18.26,5.36,26.84,7.75,8.56,2.4,15.49,5.61,20.78,9.63,5.29,4.04,7.94,9.83,7.94,17.4,0,5.79-2.08,10.57-6.24,14.36-4.16,3.78-9.45,6.61-15.87,8.5-6.43,1.89-13.42,2.83-20.98,2.83-8.57,0-16.44-.94-23.62-2.83-7.18-1.89-12.92-5.16-17.2-9.83-4.29-4.66-6.42-10.89-6.42-18.7v-4.16h-38.94c0,.75-.06,1.64-.18,2.64-.14,1.01-.19,2.15-.19,3.4,0,9.07,1.82,17.33,5.47,24.76,3.66,7.44,9.02,13.79,16.07,19.09,7.05,5.29,15.88,9.45,26.46,12.47,10.58,3.02,22.8,4.53,36.66,4.53,12.1,0,23.31-1.2,33.64-3.59s19.33-6.04,27.03-10.96c7.68-4.91,13.66-11.39,17.95-19.46,4.28-8.06,6.43-17.51,6.43-28.35,0-5.76-.59-10.95-1.76-15.58l162.15,36.2c-.15,1.32-.23,2.67-.23,4.03,0,19.28,15.63,34.92,34.92,34.92s34.92-15.64,34.92-34.92-15.64-34.92-34.92-34.92c-3.92,0-7.68.65-11.2,1.84l-158.19-345.71v-4.76c0-10.58,2.01-19.78,6.04-27.59,4.03-7.81,9.45-13.92,16.26-18.34,6.8-4.4,14.36-6.61,22.68-6.61,4.78,0,9.31.63,13.6,1.89,4.28,1.26,7.94,3.34,10.96,6.23,3.03,2.91,5.42,6.81,7.19,11.72,1.76,4.92,2.64,11.15,2.64,18.71v130.4h39.31v-116.41c0-10.58,2.01-19.78,6.05-27.59,4.02-7.81,9.31-13.92,15.87-18.34,6.55-4.4,13.99-6.61,22.3-6.61,5.04,0,9.7.63,13.99,1.89,4.27,1.26,7.93,3.34,10.96,6.23,3.02,2.91,5.41,6.81,7.18,11.72,1.76,4.92,2.65,11.15,2.65,18.71v130.4h39.3ZM464.51,110.93c4.03-7.94,9.77-13.79,17.2-17.58,7.43-3.78,16.44-5.67,27.03-5.67,7.04,0,13.35.95,18.89,2.84,5.54,1.89,10.33,4.98,14.36,9.26,4.03,4.29,7.12,9.77,9.26,16.44,2.15,6.68,3.22,14.93,3.22,24.76h-97.51c1-12.1,3.52-22.11,7.55-30.05ZM60.08,516.29l6.44-16.79h22.4l-28.84,16.79ZM80.13,463.6l28.73-75.97c1.51-3.78,3.33-8.69,5.47-14.75,2.15-6.04,4.35-12.33,6.62-18.89,2.27-6.55,4.16-12.22,5.67-17.01h2.27c1.26,4.03,2.7,8.5,4.35,13.42,1.63,4.91,3.27,9.76,4.91,14.55,1.63,4.79,3.21,9.2,4.72,13.23,1.51,4.03,2.65,7.18,3.41,9.45l24.57,64.16-20.28,11.81h-70.44ZM165,463.6l8.48-4.94,1.89,4.94h-10.37ZM291.78,360.79h-25.7v32.51h5.22l-64.26,37.42-38.52-97.89,123.32,27.52-.06.44ZM401.02,377.29l-34.78-7.77v-8.73h-24.68l59.46-34.59v51.09ZM606.62,481.74c0,7.31-1.38,14.05-4.16,20.22-2.77,6.18-6.55,11.47-11.34,15.88-4.79,4.41-10.52,7.81-17.19,10.2-6.68,2.4-13.93,3.59-21.73,3.59-6.81,0-12.73-1-17.77-3.02s-8.83-4.98-11.34-8.89c-2.52-3.9-3.78-8.75-3.78-14.55,0-9.57,3.65-17.06,10.96-22.48,7.31-5.42,17.51-9.14,30.62-11.16,13.1-2.01,28.35-3.02,45.73-3.02v13.23ZM751.38,122.36v17.86c-11.42,0-22.3.38-32.63,1.14l32.63-19ZM675.03,182.37c7.31-5.42,17.51-9.14,30.62-11.16,13.1-2.01,28.35-3.02,45.73-3.02v13.23c0,7.31-1.38,14.05-4.16,20.22-2.77,6.18-6.55,11.47-11.34,15.88-4.79,4.41-10.52,7.81-17.19,10.2-6.68,2.4-13.93,3.59-21.73,3.59-6.81,0-12.73-1-17.77-3.02s-8.83-4.98-11.34-8.89c-2.52-3.9-3.78-8.75-3.78-14.55,0-9.57,3.66-17.06,10.96-22.48ZM606.62,423.19l-78.61-17.55c.54-1.45,1.23-2.86,2.07-4.22,2.39-3.9,6.55-7.18,12.48-9.83,5.91-2.64,14.17-3.96,24.75-3.96s18.71,1.38,24.38,4.16c5.67,2.77,9.57,6.67,11.72,11.71,2.14,5.05,3.21,10.84,3.21,17.38v2.31ZM1034.58,496.33c-7.17,4.22-12.7,10.95-15.39,18.97l-166.63-37.2c-.79-1.66-1.7-3.22-2.72-4.67-4.91-7.06-11.34-12.61-19.28-16.64-7.93-4.03-16.56-7.37-25.89-10.01-9.32-2.65-18.52-5.23-27.58-7.75-7.82-2.51-15.12-4.85-21.93-6.99-6.8-2.14-12.28-4.78-16.44-7.94-4.16-3.14-6.24-7.62-6.24-13.42,0-3.53.82-6.67,2.46-9.45,1.64-2.77,4.09-5.16,7.37-7.18,3.27-2.02,7.43-3.59,12.48-4.73,5.03-1.12,10.82-1.69,17.38-1.69,9.83,0,17.7,1.26,23.62,3.77,5.92,2.53,10.27,5.81,13.04,9.83,2.78,4.04,4.16,8.57,4.16,13.61v3.4h38.56c0-.5.05-1.57.18-3.21.13-1.64.19-3.21.19-4.72,0-7.57-1.76-14.69-5.29-21.36-3.53-6.67-8.64-12.41-15.31-17.2-6.68-4.78-14.8-8.5-24.38-11.15-9.57-2.64-20.54-3.96-32.88-3.96s-22.74,1.26-32.69,3.77c-9.96,2.53-18.52,6.18-25.71,10.96-7.18,4.79-12.78,10.72-16.81,17.77-4.03,7.05-6.05,15.25-6.05,24.56,0,9.83,2.02,18.03,6.05,24.58,1.43,2.33,3.03,4.53,4.79,6.57l-57.71-12.88v-14.48c0-12.85-2.9-23.82-8.69-32.88-5.8-9.08-14.43-16.07-25.89-20.99-11.47-4.91-25.77-7.37-42.9-7.37-15.88,0-29.86,2.15-41.96,6.43-12.09,4.29-21.48,10.52-28.15,18.71-3.82,4.67-6.54,9.94-8.17,15.8l-49.85-11.13v-82.73l67.94-39.52h.48c12.85,0,24.56-1.64,35.15-4.91,10.58-3.27,19.71-7.99,27.4-14.17,7.68-6.18,13.54-13.8,17.58-22.87.91-2.05,1.71-4.17,2.41-6.36l32.86-19.11c-.59,3.73-.89,7.68-.89,11.87,0,11.59,2.02,20.97,6.05,28.15,4.03,7.18,9.26,12.79,15.68,16.82,6.43,4.03,13.29,6.81,20.6,8.32,7.31,1.51,14.12,2.26,20.42,2.26,10.33,0,19.65-1.2,27.97-3.59,8.31-2.39,15.68-5.79,22.11-10.2,6.42-4.41,11.9-9.51,16.44-15.3h2.27c1,5.54,2.95,10.52,5.85,14.92,2.89,4.41,6.68,7.82,11.34,10.21,4.66,2.39,10.39,3.59,17.2,3.59,6.04,0,11.34-.63,15.87-1.89,4.54-1.27,8.32-2.52,11.35-3.78v-26.46h-13.61c-3.28,0-6.12-1-8.51-3.02-2.4-2.02-3.59-5.42-3.59-10.21v-100.91c0-5.93-.62-11.47-1.86-16.6l50.93-29.63,3.84,8.38v179.96h39.31v-94.12l151.67,331.17Z"/>
</svg>